<?xml version="1.0" standalone="no"?>
<!DOCTYPE svg PUBLIC "-//W3C//DTD SVG 20010904//EN"
 "http://www.w3.org/TR/2001/REC-SVG-20010904/DTD/svg10.dtd">
<svg version="1.0" xmlns="http://www.w3.org/2000/svg"
 width="301.000000pt" height="301.000000pt" viewBox="0 0 301.000000 301.000000"
 preserveAspectRatio="xMidYMid meet">
<metadata>
Created by potrace 1.14, written by Peter Selinger 2001-2017
</metadata>
<g transform="translate(0.000000,301.000000) scale(0.100000,-0.100000)"
fill="#000000" stroke="none">
<path d="M1459 2776 c-25 -6 -65 -24 -90 -38 -24 -15 -160 -143 -301 -285
l-258 -259 0 -49 0 -49 297 -298 298 -298 -298 -298 -297 -298 0 -49 0 -49
263 -264 c317 -318 325 -323 501 -330 61 -2 120 -2 131 0 16 4 -38 63 -269
295 -158 160 -292 296 -297 304 -12 19 -11 66 2 92 6 12 140 151 297 309 l287
288 -292 292 c-160 161 -294 304 -298 316 -19 63 -7 78 295 380 160 160 290
293 290 296 0 11 -215 5 -261 -8z"/>
<path d="M1598 2503 c-157 -159 -291 -298 -297 -310 -6 -12 -11 -34 -11 -48 0
-14 5 -36 11 -48 6 -12 140 -151 297 -309 l287 -288 -287 -287 c-157 -159
-291 -298 -297 -310 -19 -37 -13 -78 18 -119 16 -21 150 -160 299 -308 l271
-269 46 5 c81 10 130 78 106 151 -7 21 -81 102 -216 237 -137 137 -206 213
-210 232 -14 60 8 86 303 381 l287 287 -159 160 -160 159 95 98 c102 104 117
133 99 189 -16 48 -53 74 -108 74 -43 0 -48 -3 -141 -95 -54 -52 -101 -95
-105 -95 -4 0 -30 23 -56 50 -50 52 -67 92 -55 132 4 13 94 111 200 218 219
221 234 245 199 316 -21 42 -75 84 -108 84 -14 0 -113 -92 -308 -287z"/>
</g>
</svg>
