<svg xmlns="http://www.w3.org/2000/svg" viewBox="0 0 95.27 187.09"><defs><style>.cls-1{fill:#f0b414;}.cls-2{fill:#b41450;}.cls-3{fill:#00c8b4;}.cls-4{fill:#00648c;}</style></defs><title>marchio light</title><g id="Livello_2" data-name="Livello 2"><g id="Livello_5" data-name="Livello 5"><path class="cls-1" d="M35.7,186.06,4.13,153.26a11.16,11.16,0,0,1,0-15.53L46.66,93.54,4.13,49.34a11.15,11.15,0,0,1,0-15.52L32.4,4.45A11.24,11.24,0,0,1,40.46,1H52.91L22.69,32.43a13.17,13.17,0,0,0,0,18.3L63.9,93.53,22.69,136.35a13.15,13.15,0,0,0,0,18.29l30.23,31.44Z"/><path class="cls-2" d="M40.47,2h10.1L22,31.73a14.16,14.16,0,0,0,0,19.69L62.51,93.53,22,135.66a14.16,14.16,0,0,0,0,19.68l28.6,29.74-14.43,0L4.85,152.56a10.14,10.14,0,0,1,0-14.13l41.86-43.5,1.34-1.39-1.33-1.38L4.85,48.65a10.16,10.16,0,0,1,0-14.14L33.12,5.14A10.2,10.2,0,0,1,40.46,2h0m0-2a12.16,12.16,0,0,0-8.78,3.73L3.41,33.12A12.18,12.18,0,0,0,3.41,50L45.27,93.54,3.41,137a12.18,12.18,0,0,0,0,16.91l31.87,33.11,20,0L23.4,154a12.2,12.2,0,0,1,0-16.91L65.29,93.53,23.41,50a12.2,12.2,0,0,1,0-16.91L55.26,0H40.46Z"/><path class="cls-3" d="M68.33,186a6.22,6.22,0,0,1-4.45-1.89l-29.7-30.86a11.23,11.23,0,0,1,0-15.61L76,94.22l.49-.65L76,92.88l0,0L34.18,49.37a11.21,11.21,0,0,1,0-15.61L63.88,2.9a6.23,6.23,0,0,1,10.2,1.87,6.11,6.11,0,0,1-1.24,6.72L52.74,32.37a13.22,13.22,0,0,0,0,18.39l7.55,7.84,10.54-11a6.18,6.18,0,0,1,8.87,0l.07.08a6.16,6.16,0,0,1,0,8.58L68.91,67.55l25,26L52.74,136.29a13.22,13.22,0,0,0,0,18.38l20.08,20.89A6.18,6.18,0,0,1,68.35,186Z"/><path class="cls-4" d="M68.33,0l.06,2a5.19,5.19,0,0,1,3.73,8.79L52,31.68a14.2,14.2,0,0,0,0,19.77l6.83,7.09L60.29,60l1.44-1.5,9.82-10.19a5.12,5.12,0,0,1,3.74-1.6,5.17,5.17,0,0,1,3.64,1.49h0l.12.12a5.18,5.18,0,0,1,0,7.2L68.86,66.16l-1.34,1.39,1.34,1.39L92.52,93.52,52,135.6a14.22,14.22,0,0,0,0,19.77l20.08,20.88a5.19,5.19,0,0,1-7.49,7.2L34.9,152.59a10.22,10.22,0,0,1,0-14.22L76.68,95l.08-.09.08-.1a2.09,2.09,0,0,0,0-2.49l-.08-.09-.08-.09L34.9,48.67a10.22,10.22,0,0,1,0-14.22L64.6,3.59A5.2,5.2,0,0,1,68.33,2V0m0,0a7.18,7.18,0,0,0-5.17,2.2L33.46,33.06a12.25,12.25,0,0,0,0,17L75.24,93.48a.07.07,0,0,1,0,.09L33.46,137a12.25,12.25,0,0,0,0,17l29.7,30.86a7.17,7.17,0,0,0,5.17,2.2h0a7.19,7.19,0,0,0,5.18-12.18L53.45,154a12.26,12.26,0,0,1,0-17L95.25,93.56a.06.06,0,0,0,0-.08l-25-25.93L80.49,57a7.2,7.2,0,0,0,0-10l0,0a7.18,7.18,0,0,0-10.36,0l-9.82,10.2-6.83-7.1a12.25,12.25,0,0,1,0-17l20.1-20.88A7.19,7.19,0,0,0,68.39,0h-.06Z"/></g></g></svg>