<svg xmlns="http://www.w3.org/2000/svg" viewBox="0 0 95.27 187.09"><defs><style>.cls-1{fill:#b41450;}.cls-2{fill:#00648c;}</style></defs><title>marchio</title><g id="Livello_2" data-name="Livello 2"><g id="Livello_5" data-name="Livello 5"><path class="cls-1" d="M55.26,0H40.48a12.17,12.17,0,0,0-8.8,3.73L3.41,33.12A12.18,12.18,0,0,0,3.41,50L45.27,93.54,3.41,137a12.2,12.2,0,0,0,0,16.91l31.87,33.11,20,0L23.4,154a12.2,12.2,0,0,1,0-16.91L65.29,93.53,23.41,50a12.2,12.2,0,0,1,0-16.91Z"/><path class="cls-2" d="M53.46,137a12.26,12.26,0,0,0,0,17l20.08,20.88A7.19,7.19,0,0,1,68.35,187h0a7.17,7.17,0,0,1-5.17-2.2L33.46,154a12.25,12.25,0,0,1,0-17L75.24,93.57a.07.07,0,0,0,0-.09L33.46,50.06a12.25,12.25,0,0,1,0-17L63.16,2.2A7.16,7.16,0,0,1,68.35,0h0a7.19,7.19,0,0,1,5.17,12.18L53.46,33.06a12.25,12.25,0,0,0,0,17l6.83,7.1L70.11,47a7.19,7.19,0,0,1,10.36,0l0,0a7.2,7.2,0,0,1,0,10L70.3,67.55l25,25.93a.06.06,0,0,1,0,.08Z"/></g></g></svg>